<?xml version="1.0" encoding="UTF-8"?>
<svg id="Layer_1" xmlns="http://www.w3.org/2000/svg" viewBox="0 0 159.56 159.56">
  <defs>
    <style>
      .cls-1 {
        fill: none;
        stroke: #292928;
        stroke-miterlimit: 10;
      }

      .cls-2 {
        fill: #292928;
      }
    </style>
  </defs>
  <path class="cls-2" d="M140.38,18.68c-26.9-25.68-51.56-11.18-71.24,13.15-14.65,18.12-31.07,65.94-37.83,86.9l-26,26c-2.21,2.21-2.21,5.8,0,8.01s5.8,2.21,8.01,0l26.97-26.97c22.01-5.84,67.95-19.55,86.85-36.54,24-21.58,42.43-42.69,13.24-70.56ZM119.66,81.61c-20.43,18.53-78.33,34.08-78.33,34.08,0,0,19.55-57.91,35.11-76.82,16.11-19.59,35.78-31.68,55.85-12.59,21.79,20.71,6.75,37.75-12.64,55.33Z"/>
  <line class="cls-1" x1="41.33" y1="115.69" x2="132.57" y2="24.46"/>
  <line class="cls-1" x1="41.33" y1="107.91" x2="132.57" y2="16.68"/>
  <line class="cls-1" x1="44.2" y1="97.26" x2="124.79" y2="16.68"/>
  <line class="cls-1" x1="48.08" y1="116.64" x2="136.42" y2="28.31"/>
  <line class="cls-1" x1="54.69" y1="118.37" x2="143.02" y2="30.03"/>
  <line class="cls-1" x1="66.58" y1="115.14" x2="147.35" y2="34.37"/>
  <line class="cls-1" x1="42.31" y1="90.86" x2="123.08" y2="10.09"/>
  <line class="cls-1" x1="81.65" y1="109.1" x2="150.52" y2="40.23"/>
  <line class="cls-1" x1="49.59" y1="75.41" x2="118.46" y2="6.54"/>
  <line class="cls-1" x1="128.92" y1="77.19" x2="79.19" y2="27.47"/>
  <line class="cls-1" x1="135.11" y1="72.86" x2="85.39" y2="23.14"/>
  <line class="cls-1" x1="140.95" y1="68.11" x2="91.23" y2="18.39"/>
  <line class="cls-1" x1="125.97" y1="84.94" x2="76.25" y2="35.22"/>
  <line class="cls-1" x1="121.33" y1="91.04" x2="71.61" y2="41.32"/>
  <line class="cls-1" x1="112.94" y1="93.17" x2="63.22" y2="43.44"/>
  <line class="cls-1" x1="106.97" y1="98.28" x2="59.63" y2="50.94"/>
</svg>