<?xml version="1.0" encoding="UTF-8"?>
<svg id="Layer_1" xmlns="http://www.w3.org/2000/svg" viewBox="0 0 158.67 158.67">
  <defs>
    <style>
      .cls-1 {
        fill: #292928;
      }
    </style>
  </defs>
  <path id="Subtraction_14" class="cls-1" d="M10.98,147.64c-2.91-2.9-5.19-6.36-6.7-10.18-1.47-3.7-2.2-7.65-2.15-11.64.09-8.26,3.43-16.17,9.31-22.01l43.37,43.37c-5.84,5.87-13.75,9.22-22.01,9.31-3.99.05-7.94-.68-11.64-2.15-3.82-1.51-7.28-3.79-10.18-6.7ZM62.63,139.36l-43.37-43.37,10.57-10.57L70.08,2.05l21.9-.07.41.41.18,21.36-17.06,1.12-11.67,38.59-12.45,5.72h0c-.51.98-12.54,24.1-12.51,24.2.8.6,1.54,1.29,2.2,2.04,1.92,1.92,4.53,4.63,5.64,5.78l.11.11.03.03.35.36c.35,0,20.87-20.85,21.74-21.74l14.53-47.12,39.94.58,2.56,2.56.58,39.94-47.13,14.54c-.22.22-21.74,21.39-21.74,21.74l.02.02s.16.16.34.33l.03.03c1.07,1.03,3.9,3.76,5.9,5.75.75.66,1.43,1.4,2.04,2.2.1.03,21.7-11.22,24.17-12.49l.03-.02,5.72-12.45,38.59-11.67,1.12-17.06,21.36.18.91.91-.06,19.98-84.68,40.88-10.57,10.57Z"/>
</svg>