<?xml version="1.0" encoding="UTF-8"?>
<svg id="Layer_1" xmlns="http://www.w3.org/2000/svg" viewBox="0 0 158.67 158.67">
  <defs>
    <style>
      .cls-1 {
        fill: #292928;
      }
    </style>
  </defs>
  <path id="Subtraction_6" class="cls-1" d="M79.37,157.39c-40.05,0-73.59-30.33-77.61-70.18,8.6-.58,17.04-2.59,24.98-5.95,4.64-1.96,9.08-4.37,13.25-7.19,4.14-2.8,8.01-5.99,11.54-9.53,3.53-3.54,6.72-7.4,9.52-11.54,2.82-4.17,5.23-8.61,7.19-13.25,4.07-9.6,6.15-19.93,6.13-30.36,0-2.61-.13-5.24-.38-7.82,1.79-.12,3.6-.18,5.38-.18,15.54-.02,30.73,4.62,43.61,13.32,12.54,8.47,22.36,20.39,28.26,34.32,3.44,8.13,5.47,16.79,5.99,25.6-13.41,1.04-26.32,5.55-37.47,13.08-12.54,8.47-22.36,20.39-28.26,34.32-4.06,9.6-6.15,19.93-6.13,30.36,0,1.59.05,3.19.14,4.76-2.03.16-4.1.24-6.14.24ZM97.42,155.3h0c-.03-.8-.04-1.61-.04-2.41.04-34.06,25.78-62.6,59.66-66.15-1.21,12.99-5.68,25.46-12.98,36.26-8.46,12.54-20.39,22.36-34.32,28.26-3.99,1.69-8.11,3.04-12.32,4.04h0ZM1.44,76.24h0C2.87,40.66,28.22,10.57,63.03,3.11c.23,2.25.34,4.52.34,6.78.02,16.9-6.43,33.16-18.01,45.47-5.61,5.99-12.28,10.9-19.67,14.46-7.6,3.67-15.83,5.85-24.25,6.42Z"/>
</svg>